<svg xmlns="http://www.w3.org/2000/svg" viewBox="0 0 20 20"><path fill="#2E2E2E" d="M16.218 3.782C14.424 1.988 12.038 1 9.5 1s-4.923.988-6.718 2.782S0 7.962 0 10.5s.988 4.922 2.782 6.717S6.962 20 9.5 20s4.923-.99 6.718-2.783S19 13.037 19 10.5s-.988-4.924-2.782-6.718zM9.5 19C4.813 19 1 15.187 1 10.5S4.813 2 9.5 2c4.687 0 8.5 3.813 8.5 8.5S14.187 19 9.5 19z"/><path fill="#2E2E2E" d="M8 16a.5.5 0 0 1-.354-.853l4.646-4.646-4.646-4.645a.5.5 0 0 1 .707-.707l5 5a.5.5 0 0 1 0 .707l-5 5A.498.498 0 0 1 8 16z"/></svg>