<svg xmlns="http://www.w3.org/2000/svg" preserveAspectRatio="xMidYMid" width="57" height="36"><defs><style>.cls-1{fill:#216321;fill-rule:evenodd}</style></defs><path d="M52.5 0h-48C2.02 0 0 2.02 0 4.5v27C0 33.98 2.02 36 4.5 36h48c2.48 0 4.5-2.02 4.5-4.5v-27C57 2.02 54.98 0 52.5 0zm0 3c.09 0 .174.01.26.024L30.166 18.087c-.87.58-2.457.58-3.327 0L4.242 3.024A1.48 1.48 0 0 1 4.502 3h48-.002zm0 30h-48A1.5 1.5 0 0 1 3 31.5V5.802l22.173 14.78c.933.622 2.13.934 3.327.934s2.394-.312 3.327-.933L54 5.803V31.5a1.5 1.5 0 0 1-1.5 1.5z" class="cls-1"/></svg>