<svg xmlns="http://www.w3.org/2000/svg" width="20" height="20"><defs><style>.cls-1{fill:#fff;fill-rule:evenodd}</style></defs><path class="cls-1" d="M18.5 4H17V1.5A1.5 1.5 0 0 0 15.5 0h-11A1.5 1.5 0 0 0 3 1.5V4H1.5A1.5 1.5 0 0 0 0 5.5v9A1.5 1.5 0 0 0 1.5 16H3v2.5A1.5 1.5 0 0 0 4.5 20h11a1.5 1.5 0 0 0 1.5-1.5V16h1.5a1.5 1.5 0 0 0 1.5-1.5v-9A1.5 1.5 0 0 0 18.5 4zM4 1.5a.5.5 0 0 1 .5-.5h11a.5.5 0 0 1 .5.5V4H4V1.5zM15.5 19h-11a.5.5 0 0 1-.5-.5V12h12v6.5a.5.5 0 0 1-.5.5zm3.5-4.5a.5.5 0 0 1-.5.5H17v-3h.5a.5.5 0 0 0 0-1h-15a.5.5 0 0 0 0 1H3v3H1.5a.5.5 0 0 1-.5-.5v-9a.5.5 0 0 1 .5-.5h17a.5.5 0 0 1 .5.5v9zm-4.5-.5h-9a.5.5 0 0 1 0-1h9a.5.5 0 0 1 0 1zm0 2h-9a.5.5 0 0 1 0-1h9a.5.5 0 0 1 0 1zm0 2h-9a.5.5 0 0 1 0-1h9a.5.5 0 0 1 0 1zm2-9A1.5 1.5 0 1 1 18 7.5 1.5 1.5 0 0 1 16.5 9zm0-2a.5.5 0 1 0 .5.5.5.5 0 0 0-.5-.5z"/></svg>