<svg id="Logo" xmlns="http://www.w3.org/2000/svg" width="347" height="58"><defs><style>.cls-1{fill:#216321}.cls-2{fill:#fff;fill-rule:evenodd}</style></defs><rect class="cls-1" width="347" height="58" rx="7" ry="7"/><path id="S" class="cls-2" d="M33.162 44.17c6.993 0 11.64-3.5 11.64-9.378v-.082c0-5.388-4.112-7.527-10.735-8.967-3.99-.905-4.977-1.48-4.977-2.8v-.08c0-1.028.946-1.85 2.88-1.85a14.443 14.443 0 0 1 8.062 2.837l3.99-5.635a18.125 18.125 0 0 0-11.847-3.825c-6.91 0-11.147 3.867-11.147 9.214v.082c0 5.923 4.73 7.65 10.86 9.05 3.907.905 4.853 1.563 4.853 2.756v.082c0 1.234-1.15 1.974-3.29 1.974a14.83 14.83 0 0 1-9.337-3.455L19.67 39.4a20.112 20.112 0 0 0 13.492 4.77z"/><path id="The_Shannon_Group" data-name="The Shannon Group" class="cls-2" d="M64.573 37.79h4.46V25.6h4.83v-3.907h-14.12V25.6h4.83v12.19zm11.017 0h4.46v-6.117h5.727v6.117h4.46v-16.1h-4.46v6.025H80.05v-6.022h-4.46v16.1zm17.273 0h13.06V34H97.28v-2.553H105v-3.522h-7.726v-2.437h8.53v-3.795h-12.94v16.1zm27.575.276c3.91 0 6.508-1.955 6.508-5.243v-.046c0-3.012-2.3-4.208-6-5.013-2.23-.506-2.782-.828-2.782-1.564v-.046c0-.575.53-1.035 1.61-1.035a8.07 8.07 0 0 1 4.506 1.586l2.23-3.15a10.132 10.132 0 0 0-6.622-2.138c-3.863 0-6.23 2.16-6.23 5.15v.047c0 3.31 2.643 4.277 6.07 5.06 2.184.505 2.713.873 2.713 1.54v.046c0 .69-.643 1.1-1.84 1.1a8.292 8.292 0 0 1-5.22-1.93l-2.48 2.97a11.24 11.24 0 0 0 7.538 2.666zm8.442-.276h4.46v-6.117h5.727v6.117h4.46v-16.1h-4.46v6.025h-5.726v-6.022h-4.46v16.1zm15.985 0h4.69l1.15-2.874h6.21l1.173 2.874h4.782l-6.852-16.212h-4.3zm7.152-6.347l1.816-4.576 1.794 4.576h-3.61zm12.19 6.347h4.416v-8.83l6.876 8.83h3.908v-16.1h-4.415v8.51l-6.623-8.508h-4.162v16.1zm17.826 0h4.415v-8.83l6.875 8.83h3.91v-16.1h-4.416v8.51l-6.617-8.507h-4.162v16.1zm25.92.322a8.432 8.432 0 0 0 8.69-8.37V29.7a8.675 8.675 0 0 0-17.337.046v.046a8.355 8.355 0 0 0 8.646 8.32zm.047-4.024a4.18 4.18 0 0 1-4.116-4.346V29.7a4.1 4.1 0 0 1 4.07-4.3 4.183 4.183 0 0 1 4.14 4.346v.046A4.107 4.107 0 0 1 208 34.088zm10.742 3.7h4.415V28.96l6.876 8.83h3.91v-16.1h-4.416v8.51l-6.627-8.507h-4.16v16.1zm32.175.322a10.882 10.882 0 0 0 6.99-2.484v-7.24H250.5v3.264h3.174v1.955a4.55 4.55 0 0 1-2.576.667 4.252 4.252 0 0 1-4.37-4.46v-.047a4.228 4.228 0 0 1 4.117-4.415 5.676 5.676 0 0 1 3.886 1.518l2.623-3.15a9.39 9.39 0 0 0-6.53-2.346 8.356 8.356 0 0 0-8.67 8.37v.046c0 4.875 3.747 8.324 8.762 8.324zm9.248-.322h4.46v-4.875h1.956l3.243 4.875h5.15l-3.84-5.61a5.09 5.09 0 0 0 3.312-4.945v-.044a4.99 4.99 0 0 0-1.426-3.75c-1.082-1.1-2.783-1.747-5.244-1.747h-7.61v16.1zm4.46-8.37v-3.86h2.92c1.5 0 2.416.643 2.416 1.908v.046c0 1.173-.873 1.91-2.39 1.91h-2.944zm19.94 8.692a8.432 8.432 0 0 0 8.693-8.37v-.04a8.675 8.675 0 0 0-17.338.046v.046a8.355 8.355 0 0 0 8.644 8.32zm.047-4.024a4.18 4.18 0 0 1-4.116-4.346v-.04a4.1 4.1 0 0 1 4.07-4.3 4.183 4.183 0 0 1 4.14 4.346v.046a4.107 4.107 0 0 1-4.096 4.296zm17.986 4c4.576 0 7.542-2.277 7.542-7.474v-8.92h-4.53v9.06c0 2.255-1.172 3.313-2.966 3.313s-2.966-1.1-2.966-3.427v-8.945h-4.53v9.037c-.002 5.036 2.872 7.36 7.452 7.36zm9.96-.3h4.462v-4.6h2.207c4 0 6.922-2 6.922-5.795v-.04c0-3.564-2.623-5.657-6.693-5.657h-6.9v16.1zm4.462-8.094v-4.25h2.092c1.61 0 2.576.736 2.576 2.116v.042c0 1.265-.966 2.093-2.553 2.093h-2.115z"/></svg>