<svg xmlns="http://www.w3.org/2000/svg" preserveAspectRatio="xMidYMid" width="36" height="60"><defs><style>.cls-1{fill:#216321;fill-rule:evenodd}</style></defs><path d="M33.348 33.024c-1.395 4.25-3.34 8.71-5.775 13.248-4.14 7.713-8.22 12.936-8.39 13.155-.286.363-.72.573-1.18.573h-.006c-.46 0-.894-.21-1.18-.573-.17-.22-4.253-5.442-8.39-13.155-2.436-4.54-4.38-8.997-5.775-13.248C.892 27.664 0 22.608 0 18 0 8.076 8.076 0 18 0s18 8.076 18 18c0 4.608-.894 9.66-2.652 15.024zM17.998 3c-8.272 0-15 6.73-15 15 0 9.762 4.388 19.992 8.072 26.853a103.233 103.233 0 0 0 6.927 11.13 103.14 103.14 0 0 0 6.954-11.178c3.67-6.85 8.047-17.06 8.047-26.805 0-8.27-6.73-15-15-15zm-9 15c0-4.962 4.037-9 9-9 4.96 0 9 4.038 9 9s-4.04 9-9 9c-4.963 0-9-4.038-9-9zm15 0c0-3.31-2.692-6-6-6-3.31 0-6 2.69-6 6s2.69 6 6 6c3.308 0 6-2.69 6-6z" class="cls-1"/></svg>