<svg xmlns="http://www.w3.org/2000/svg" viewBox="0 0 20 20"><path fill="#216321" d="M10 20a.5.5 0 0 1-.393-.19c-.057-.074-1.418-1.815-2.797-4.386-.812-1.513-1.46-3-1.925-4.416C4.298 9.22 4 7.536 4 6c0-3.308 2.693-6 6-6s6 2.692 6 6c0 1.536-.297 3.22-.883 5.008-.465 1.417-1.113 2.903-1.925 4.416-1.38 2.57-2.74 4.312-2.797 4.385a.5.5 0 0 1-.393.19zm0-19C7.243 1 5 3.243 5 6c0 3.254 1.463 6.664 2.69 8.95A34.41 34.41 0 0 0 10 18.66a34.38 34.38 0 0 0 2.318-3.725C13.54 12.652 15 9.248 15 6c0-2.757-2.243-5-5-5z"/><path fill="#216321" d="M10 9C8.346 9 7 7.654 7 6s1.346-3 3-3 3 1.346 3 3-1.346 3-3 3zm0-5c-1.103 0-2 .897-2 2s.897 2 2 2 2-.897 2-2-.897-2-2-2z"/></svg>