<svg xmlns="http://www.w3.org/2000/svg" preserveAspectRatio="xMidYMid" width="60" height="60"><defs><style>.cls-1{fill:#216321;fill-rule:evenodd}</style></defs><path d="M47.993 59.997c-5.316 0-10.97-1.506-16.81-4.476-5.383-2.738-10.7-6.658-15.376-11.338-4.677-4.68-8.594-10-11.332-15.38C1.51 22.963.002 17.31.002 11.998c0-3.444 3.212-6.77 4.59-8.04C6.576 2.133 9.698 0 11.968 0c1.128 0 2.45.738 4.163 2.322 1.277 1.182 2.715 2.784 4.153 4.632.867 1.115 5.193 6.812 5.193 9.545 0 2.24-2.536 3.8-5.22 5.447-1.04.636-2.11 1.296-2.885 1.917-.827.663-.975 1.014-1 1.092 2.85 7.097 11.56 15.8 18.658 18.644.063-.02.415-.16 1.09-1 .62-.773 1.282-1.847 1.918-2.882 1.65-2.682 3.21-5.217 5.452-5.217 2.734 0 8.435 4.324 9.552 5.19 1.85 1.438 3.452 2.875 4.635 4.15 1.585 1.71 2.323 3.033 2.323 4.16 0 2.27-2.134 5.397-3.96 7.39-1.272 1.385-4.6 4.61-8.047 4.61l.003-.003zM11.953 3c-.805.015-2.97 1-5.323 3.165C4.397 8.223 3.007 10.457 3.007 12c0 20.185 24.808 44.997 44.986 44.997 1.54 0 3.777-1.395 5.836-3.64 2.17-2.362 3.154-4.534 3.17-5.34-.097-.57-1.676-2.788-5.996-6.112-3.713-2.856-6.724-4.39-7.498-4.407-.054.015-.39.144-1.072 1.008-.59.753-1.225 1.782-1.84 2.778-1.68 2.733-3.27 5.316-5.578 5.316a2.91 2.91 0 0 1-1.09-.213c-7.88-3.15-17.197-12.462-20.35-20.336-.378-.944-.438-2.426 1.424-4.112.99-.897 2.36-1.737 3.686-2.553.996-.612 2.03-1.245 2.78-1.84.864-.68.993-1.016 1.008-1.07-.02-.774-1.552-3.783-4.41-7.493-3.326-4.317-5.544-5.892-6.114-5.99l.003.008z" class="cls-1"/></svg>