<svg xmlns="http://www.w3.org/2000/svg" width="20" height="20"><defs><style>.cls-1{fill:#fff;fill-rule:evenodd}</style></defs><path class="cls-1" d="M16 20a12.428 12.428 0 0 1-5.6-1.49A21.265 21.265 0 0 1 1.5 9.6 12.443 12.443 0 0 1 0 4a4.274 4.274 0 0 1 1.53-2.68A4.552 4.552 0 0 1 3.988 0a2.312 2.312 0 0 1 1.388.77A13.5 13.5 0 0 1 6.76 2.32c.29.37 1.73 2.27 1.73 3.18 0 .75-.845 1.27-1.74 1.82a11.2 11.2 0 0 0-.96.63.975.975 0 0 0-.334.37 13.215 13.215 0 0 0 6.22 6.21.86.86 0 0 0 .362-.33 11.02 11.02 0 0 0 .64-.96c.55-.89 1.07-1.74 1.817-1.74.91 0 2.812 1.44 3.184 1.73a13.812 13.812 0 0 1 1.544 1.38A2.27 2.27 0 0 1 20 16a4.55 4.55 0 0 1-1.32 2.46A4.262 4.262 0 0 1 16 20zM3.986 1a3.8 3.8 0 0 0-1.774 1.05A3.266 3.266 0 0 0 1 4c0 6.73 8.27 15 15 15a3.263 3.263 0 0 0 1.945-1.21 3.822 3.822 0 0 0 1.057-1.78 6.217 6.217 0 0 0-2-2.04 7.96 7.96 0 0 0-2.5-1.47.9.9 0 0 0-.357.34 10.783 10.783 0 0 0-.614.92c-.56.91-1.088 1.77-1.858 1.77a.913.913 0 0 1-.363-.07 14.153 14.153 0 0 1-6.784-6.78A1.182 1.182 0 0 1 5 7.31a8.372 8.372 0 0 1 1.23-.85 9.075 9.075 0 0 0 .925-.61.938.938 0 0 0 .336-.36 7.85 7.85 0 0 0-1.468-2.5A6.22 6.22 0 0 0 3.982 1z"/></svg>