<svg xmlns="http://www.w3.org/2000/svg" xmlns:xlink="http://www.w3.org/1999/xlink" preserveAspectRatio="xMidYMid" width="57" height="36" viewBox="0 0 57 36">
  <defs>
    <style>
      .cls-1 {
        fill: #216321;
        fill-rule: evenodd;
      }
    </style>
  </defs>
  <path d="M52.500,0.000 L4.500,0.000 C2.019,0.000 0.000,2.019 0.000,4.500 L0.000,31.500 C0.000,33.981 2.019,36.000 4.500,36.000 L52.500,36.000 C54.981,36.000 57.000,33.981 57.000,31.500 L57.000,4.500 C57.000,2.019 54.981,0.000 52.500,0.000 ZM52.500,3.000 C52.590,3.000 52.674,3.009 52.761,3.024 L30.165,18.087 C29.295,18.666 27.708,18.666 26.838,18.087 L4.242,3.024 C4.326,3.009 4.413,3.000 4.503,3.000 L52.503,3.000 L52.500,3.000 ZM52.500,33.000 L4.500,33.000 C3.672,33.000 3.000,32.328 3.000,31.500 L3.000,5.802 L25.173,20.583 C26.106,21.204 27.303,21.516 28.500,21.516 C29.697,21.516 30.894,21.204 31.827,20.583 L54.000,5.802 L54.000,31.500 C54.000,32.328 53.328,33.000 52.500,33.000 Z" class="cls-1"/>
</svg>
