<svg xmlns="http://www.w3.org/2000/svg" width="20" height="20" viewBox="0 0 20 20">
  <defs>
    <style>
      .cls-1 {
        fill: #fff;
        fill-rule: evenodd;
      }
    </style>
  </defs>
  <path class="cls-1" d="M601.5,3062H600v-2.5a1.5,1.5,0,0,0-1.5-1.5h-11a1.5,1.5,0,0,0-1.5,1.5v2.5h-1.5a1.5,1.5,0,0,0-1.5,1.5v9a1.5,1.5,0,0,0,1.5,1.5H586v2.5a1.5,1.5,0,0,0,1.5,1.5h11a1.5,1.5,0,0,0,1.5-1.5V3074h1.5a1.5,1.5,0,0,0,1.5-1.5v-9A1.5,1.5,0,0,0,601.5,3062Zm-14.5-2.5a0.5,0.5,0,0,1,.5-0.5h11a0.5,0.5,0,0,1,.5.5v2.5H587v-2.5Zm11.5,17.5h-11a0.5,0.5,0,0,1-.5-0.5V3070h12v6.5A0.5,0.5,0,0,1,598.5,3077Zm3.5-4.5a0.5,0.5,0,0,1-.5.5H600v-3h0.5a0.5,0.5,0,0,0,0-1h-15a0.5,0.5,0,0,0,0,1H586v3h-1.5a0.5,0.5,0,0,1-.5-0.5v-9a0.5,0.5,0,0,1,.5-0.5h17a0.5,0.5,0,0,1,.5.5v9Zm-4.5-.5h-9a0.5,0.5,0,0,1,0-1h9A0.5,0.5,0,0,1,597.5,3072Zm0,2h-9a0.5,0.5,0,0,1,0-1h9A0.5,0.5,0,0,1,597.5,3074Zm0,2h-9a0.5,0.5,0,0,1,0-1h9A0.5,0.5,0,0,1,597.5,3076Zm2-9a1.5,1.5,0,1,1,1.5-1.5A1.5,1.5,0,0,1,599.5,3067Zm0-2a0.5,0.5,0,1,0,.5.5A0.5,0.5,0,0,0,599.5,3065Z" transform="translate(-583 -3058)"/>
</svg>
