<svg xmlns="http://www.w3.org/2000/svg" width="32" height="32" viewBox="0 0 32 32">
  <defs>
    <style>
      .cls-1 {
        fill: #fff;
        fill-rule: evenodd;
      }
    </style>
  </defs>
  <path class="cls-1" d="M657.994,3909v32h32v-32h-32Zm9.992,26.86h-4.515v-14.51h4.515v14.51Zm-2.256-16.49a2.615,2.615,0,1,1,2.614-2.62A2.614,2.614,0,0,1,665.73,3919.37Zm19.15,16.49h-4.507v-7.05c0-1.69-.033-3.85-2.345-3.85-2.348,0-2.705,1.83-2.705,3.72v7.18h-4.506v-14.51h4.324v1.98H675.2a4.741,4.741,0,0,1,4.269-2.34c4.565,0,5.409,3,5.409,6.91v7.96Z" transform="translate(-658 -3909)"/>
</svg>
