<svg id="Logo" xmlns="http://www.w3.org/2000/svg" width="347" height="58" viewBox="0 0 347 58">
  <defs>
    <style>
      .cls-1 {
        fill: #216321;
      }

      .cls-2 {
        fill: #fff;
        fill-rule: evenodd;
      }
    </style>
  </defs>
  <rect class="cls-1" width="347" height="58" rx="7" ry="7"/>
  <path id="S" class="cls-2" d="M191.162,113.171c6.993,0,11.641-3.5,11.641-9.379V103.71c0-5.388-4.113-7.527-10.736-8.967-3.99-.905-4.977-1.481-4.977-2.8V91.863c0-1.028.946-1.851,2.879-1.851a14.443,14.443,0,0,1,8.063,2.838l3.99-5.635a18.125,18.125,0,0,0-11.847-3.825c-6.911,0-11.147,3.867-11.147,9.214v0.082c0,5.923,4.73,7.651,10.859,9.05,3.908,0.905,4.854,1.563,4.854,2.756v0.082c0,1.234-1.152,1.974-3.291,1.974a14.831,14.831,0,0,1-9.337-3.455L177.67,108.4A20.112,20.112,0,0,0,191.162,113.171Z" transform="translate(-158 -69)"/>
  <path id="The_Shannon_Group" data-name="The Shannon Group" class="cls-2" d="M222.573,106.79h4.461V94.6h4.829V90.693H217.744V94.6h4.829V106.79Zm11.017,0h4.461v-6.117h5.726v6.117h4.461v-16.1h-4.461v6.025h-5.726V90.693H233.59v16.1Zm17.273,0h13.061V103h-8.646v-2.553H263V96.925h-7.726V94.488h8.531V90.693H250.863v16.1Zm27.575,0.276c3.909,0,6.508-1.955,6.508-5.243v-0.046c0-3.012-2.3-4.208-6-5.013-2.23-.506-2.782-0.828-2.782-1.564V95.154c0-.575.529-1.035,1.609-1.035a8.07,8.07,0,0,1,4.507,1.587l2.231-3.15a10.132,10.132,0,0,0-6.623-2.138c-3.863,0-6.231,2.161-6.231,5.151v0.046c0,3.311,2.644,4.277,6.07,5.059,2.185,0.506,2.714.874,2.714,1.541v0.046c0,0.69-.644,1.1-1.84,1.1a8.292,8.292,0,0,1-5.22-1.932L270.9,104.4A11.241,11.241,0,0,0,278.438,107.066Zm8.442-.276h4.461v-6.117h5.726v6.117h4.461v-16.1h-4.461v6.025h-5.726V90.693H286.88v16.1Zm15.985,0h4.691l1.15-2.874h6.209l1.173,2.874h4.782l-6.852-16.212h-4.3Zm7.152-6.347,1.816-4.576,1.794,4.576h-3.61Zm12.191,6.347h4.415V97.96l6.876,8.83h3.909v-16.1h-4.415V99.2l-6.623-8.508h-4.162v16.1Zm17.825,0h4.415V97.96l6.875,8.83h3.91v-16.1h-4.416V99.2L344.2,90.693h-4.162v16.1Zm25.919,0.322a8.432,8.432,0,0,0,8.692-8.37V98.7a8.675,8.675,0,0,0-17.338.046v0.046A8.355,8.355,0,0,0,365.952,107.112ZM366,103.088a4.179,4.179,0,0,1-4.116-4.346V98.7a4.1,4.1,0,0,1,4.07-4.3,4.183,4.183,0,0,1,4.139,4.346v0.046A4.107,4.107,0,0,1,366,103.088Zm10.742,3.7h4.415V97.96l6.876,8.83h3.909v-16.1h-4.415V99.2L380.9,90.693H376.74v16.1Zm32.175,0.322a10.882,10.882,0,0,0,6.991-2.484V97.385H408.5v3.265h3.174v1.955a4.55,4.55,0,0,1-2.576.667,4.252,4.252,0,0,1-4.369-4.461V98.765a4.228,4.228,0,0,1,4.116-4.415,5.676,5.676,0,0,1,3.886,1.518l2.622-3.15a9.389,9.389,0,0,0-6.531-2.346,8.356,8.356,0,0,0-8.669,8.37v0.046C400.154,103.663,403.9,107.112,408.915,107.112Zm9.248-.322h4.461v-4.875h1.955l3.242,4.875h5.151l-3.84-5.611a5.091,5.091,0,0,0,3.311-4.944V96.189a4.99,4.99,0,0,0-1.426-3.748c-1.081-1.1-2.782-1.748-5.243-1.748h-7.611v16.1Zm4.461-8.37V94.557h2.92c1.5,0,2.415.644,2.415,1.909v0.046c0,1.173-.874,1.909-2.392,1.909h-2.943Zm19.94,8.692a8.432,8.432,0,0,0,8.692-8.37V98.7a8.675,8.675,0,0,0-17.338.046v0.046A8.355,8.355,0,0,0,442.564,107.112Zm0.046-4.024a4.179,4.179,0,0,1-4.116-4.346V98.7a4.1,4.1,0,0,1,4.07-4.3,4.183,4.183,0,0,1,4.139,4.346v0.046A4.107,4.107,0,0,1,442.61,103.088Zm17.986,4c4.576,0,7.542-2.277,7.542-7.474V90.693h-4.53v9.06c0,2.254-1.172,3.312-2.966,3.312s-2.966-1.1-2.966-3.427V90.693h-4.53V99.73C453.146,104.766,456.02,107.089,460.6,107.089Zm9.961-.3h4.461v-4.6h2.207c4,0,6.922-2,6.922-5.795V96.35c0-3.564-2.622-5.657-6.692-5.657h-6.9v16.1Zm4.461-8.094V94.442h2.092c1.61,0,2.576.736,2.576,2.116V96.6c0,1.265-.966,2.093-2.553,2.093h-2.115Z" transform="translate(-158 -69)"/>
</svg>
