<svg xmlns="http://www.w3.org/2000/svg" xmlns:xlink="http://www.w3.org/1999/xlink" preserveAspectRatio="xMidYMid" width="36" height="60" viewBox="0 0 36 60">
  <defs>
    <style>
      .cls-1 {
        fill: #216321;
        fill-rule: evenodd;
      }
    </style>
  </defs>
  <path d="M33.348,33.024 C31.953,37.275 30.009,41.733 27.573,46.272 C23.433,53.985 19.353,59.208 19.182,59.427 C18.897,59.790 18.462,60.000 18.003,60.000 L17.997,60.000 C17.538,60.000 17.103,59.790 16.818,59.427 C16.647,59.208 12.564,53.985 8.427,46.272 C5.991,41.733 4.047,37.275 2.652,33.024 C0.891,27.663 -0.000,22.608 -0.000,18.000 C-0.000,8.076 8.076,-0.000 18.000,-0.000 C27.924,-0.000 36.000,8.076 36.000,18.000 C36.000,22.608 35.106,27.660 33.348,33.024 ZM17.997,3.000 C9.726,3.000 2.997,9.729 2.997,18.000 C2.997,27.762 7.386,37.992 11.070,44.853 C13.776,49.896 16.497,53.895 17.997,55.983 C19.503,53.886 22.242,49.863 24.951,44.805 C28.620,37.956 32.997,27.744 32.997,18.000 C32.997,9.729 26.268,3.000 17.997,3.000 ZM8.997,18.000 C8.997,13.038 13.035,9.000 17.997,9.000 C22.959,9.000 26.997,13.038 26.997,18.000 C26.997,22.962 22.959,27.000 17.997,27.000 C13.035,27.000 8.997,22.962 8.997,18.000 ZM23.997,18.000 C23.997,14.691 21.306,12.000 17.997,12.000 C14.688,12.000 11.997,14.691 11.997,18.000 C11.997,21.309 14.688,24.000 17.997,24.000 C21.306,24.000 23.997,21.309 23.997,18.000 Z" class="cls-1"/>
</svg>
