<svg xmlns="http://www.w3.org/2000/svg" xmlns:xlink="http://www.w3.org/1999/xlink" preserveAspectRatio="xMidYMid" width="60" height="60" viewBox="0 0 60 60">
  <defs>
    <style>
      .cls-1 {
        fill: #216321;
        fill-rule: evenodd;
      }
    </style>
  </defs>
  <path d="M47.993,59.997 C42.677,59.997 37.022,58.491 31.183,55.521 C25.800,52.782 20.484,48.862 15.807,44.182 C11.130,39.502 7.213,34.183 4.475,28.801 C1.509,22.964 0.002,17.312 0.002,11.999 C0.002,8.556 3.214,5.229 4.592,3.960 C6.576,2.133 9.698,-0.000 11.968,-0.000 C13.096,-0.000 14.417,0.738 16.131,2.322 C17.407,3.504 18.845,5.106 20.283,6.954 C21.150,8.069 25.476,13.766 25.476,16.499 C25.476,18.740 22.940,20.300 20.256,21.947 C19.217,22.583 18.145,23.243 17.371,23.864 C16.543,24.527 16.395,24.878 16.371,24.956 C19.220,32.053 27.929,40.756 35.028,43.600 C35.091,43.579 35.443,43.441 36.118,42.601 C36.739,41.827 37.400,40.753 38.036,39.718 C39.687,37.036 41.245,34.501 43.488,34.501 C46.222,34.501 51.923,38.824 53.040,39.691 C54.889,41.128 56.492,42.565 57.675,43.840 C59.260,45.550 59.998,46.873 59.998,48.001 C59.998,50.269 57.864,53.397 56.039,55.389 C54.766,56.775 51.437,60.000 47.991,60.000 L47.993,59.997 ZM11.953,3.000 C11.148,3.015 8.984,3.999 6.630,6.165 C4.397,8.223 3.007,10.457 3.007,11.999 C3.007,32.185 27.815,56.997 47.993,56.997 C49.533,56.997 51.770,55.602 53.829,53.358 C56.000,50.995 56.984,48.823 56.999,48.016 C56.903,47.446 55.324,45.229 51.004,41.905 C47.291,39.049 44.280,37.516 43.506,37.498 C43.452,37.513 43.115,37.642 42.434,38.506 C41.843,39.259 41.209,40.288 40.594,41.284 C38.913,44.017 37.325,46.600 35.016,46.600 C34.644,46.600 34.278,46.528 33.927,46.387 C26.047,43.237 16.729,33.925 13.577,26.051 C13.198,25.106 13.138,23.624 15.000,21.938 C15.990,21.041 17.359,20.201 18.686,19.385 C19.682,18.773 20.715,18.140 21.466,17.546 C22.330,16.865 22.459,16.529 22.474,16.475 C22.453,15.701 20.922,12.692 18.064,8.982 C14.738,4.665 12.520,3.090 11.950,2.991 L11.953,3.000 Z" class="cls-1"/>
</svg>
