<svg xmlns="http://www.w3.org/2000/svg" width="20" height="20" viewBox="0 0 20 20">
  <defs>
    <style>
      .cls-1 {
        fill: #fff;
        fill-rule: evenodd;
      }
    </style>
  </defs>
  <path class="cls-1" d="M599,3049a12.428,12.428,0,0,1-5.6-1.49,21.265,21.265,0,0,1-8.9-8.91A12.443,12.443,0,0,1,583,3033a4.274,4.274,0,0,1,1.53-2.68,4.552,4.552,0,0,1,2.458-1.32,2.312,2.312,0,0,1,1.388.77,13.5,13.5,0,0,1,1.384,1.55c0.289,0.37,1.731,2.27,1.731,3.18,0,0.75-.846,1.27-1.74,1.82a11.2,11.2,0,0,0-.962.63,0.975,0.975,0,0,0-.333.37,13.215,13.215,0,0,0,6.219,6.21,0.861,0.861,0,0,0,.363-0.33,11.019,11.019,0,0,0,.64-0.96c0.55-.89,1.069-1.74,1.817-1.74,0.911,0,2.812,1.44,3.184,1.73a13.812,13.812,0,0,1,1.545,1.38A2.271,2.271,0,0,1,603,3045a4.551,4.551,0,0,1-1.319,2.46A4.262,4.262,0,0,1,599,3049h0Zm-12.014-19a3.8,3.8,0,0,0-1.774,1.05A3.266,3.266,0,0,0,584,3033c0,6.73,8.27,15,15,15a3.263,3.263,0,0,0,1.945-1.21,3.822,3.822,0,0,0,1.057-1.78,6.217,6.217,0,0,0-2-2.04,7.96,7.96,0,0,0-2.5-1.47,0.9,0.9,0,0,0-.357.34,10.783,10.783,0,0,0-.614.92c-0.56.91-1.089,1.77-1.859,1.77a0.913,0.913,0,0,1-.363-0.07,14.153,14.153,0,0,1-6.783-6.78,1.182,1.182,0,0,1,.474-1.37,8.372,8.372,0,0,1,1.229-.85,9.075,9.075,0,0,0,.926-0.61,0.938,0.938,0,0,0,.336-0.36,7.849,7.849,0,0,0-1.469-2.5,6.22,6.22,0,0,0-2.039-1.99h0Z" transform="translate(-583 -3029)"/>
</svg>
