<svg xmlns="http://www.w3.org/2000/svg" width="32" height="32" viewBox="0 0 32 32">
  <defs>
    <style>
      .cls-1 {
        fill: #fff;
        fill-rule: evenodd;
      }
    </style>
  </defs>
  <path class="cls-1" d="M615.994,3909v32h32v-32h-32Zm24.487,11.65c0.007,0.19.012,0.38,0.012,0.56a12.445,12.445,0,0,1-19.165,10.49,9.006,9.006,0,0,0,1.044.06,8.8,8.8,0,0,0,5.436-1.87,4.386,4.386,0,0,1-4.088-3.04,4.468,4.468,0,0,0,.823.08,4.379,4.379,0,0,0,1.153-.16,4.377,4.377,0,0,1-3.51-4.29v-0.05a4.417,4.417,0,0,0,1.982.54,4.379,4.379,0,0,1-1.355-5.84,12.412,12.412,0,0,0,9.023,4.57,4.324,4.324,0,0,1-.113-0.99,4.381,4.381,0,0,1,7.573-3,8.626,8.626,0,0,0,2.778-1.06,4.387,4.387,0,0,1-1.924,2.42,8.517,8.517,0,0,0,2.514-.69A8.975,8.975,0,0,1,640.481,3920.65Z" transform="translate(-616 -3909)"/>
</svg>
